# xmcd CD database file
#
# Track frame offsets:
#	150
#	27705
#	32046
#	53840
#	73800
#	90540
#	93462
#	113593
#	129544
#	146708
#	163253
#	167614
#	183644
#	202995
#	220965
#	237072
#	252024
#	269305
#	282499
#	297361
#
# Disc length: 4193 seconds
#
# Revision: 0
# Processed by: cddbd v1.5.2PL0 Copyright (c) Steve Scherf et al.
# Submitted via: CDex 1.51
#
DISCID=32105f14
DTITLE=Prince Alec - Jazzloungemusic - The New World
DYEAR=2006
DGENRE=Jazz
TTITLE0=The new world
TTITLE1=Jazzloungebridge 1
TTITLE2=Fade Away
TTITLE3=Endless Beach
TTITLE4=Sittin' On the Dock Of The Bay
TTITLE5=Jazzloungebridge 2
TTITLE6=Remeber Who You Love
TTITLE7=Summer In The City
TTITLE8=Like You Never Did Before
TTITLE9=Silent Moments
TTITLE10=Jazzloungebridge 3
TTITLE11=Life Can Give It
TTITLE12=Wherever You Go
TTITLE13=It's Up To You
TTITLE14=Tequila-Night
TTITLE15=Where Is The Love
TTITLE16=3 Magic Words
TTITLE17=Little Flower
TTITLE18=Say You Want Me
TTITLE19=Unexpected
EXTD=YEAR: 2006
EXTT0=
EXTT1=
EXTT2=
EXTT3=
EXTT4=
EXTT5=
EXTT6=
EXTT7=
EXTT8=
EXTT9=
EXTT10=
EXTT11=
EXTT12=
EXTT13=
EXTT14=
EXTT15=
EXTT16=
EXTT17=
EXTT18=
EXTT19=
PLAYORDER=
